<?xml version="1.0" encoding="UTF-8" standalone="no"?>
<!DOCTYPE svg PUBLIC "-//W3C//DTD SVG 1.1//EN" "http://www.w3.org/Graphics/SVG/1.1/DTD/svg11.dtd">
<svg version="1.1" xmlns="http://www.w3.org/2000/svg" xmlns:xlink="http://www.w3.org/1999/xlink" preserveAspectRatio="xMidYMid meet" viewBox="0 0 640 640" width="640" height="640"><defs><path d="" id="c9gFBHfFQ"></path>
<path d="" id="b5baRkLFj"></path><path d="M-4.76 -21.43L654.77 -21.43L654.77 637.22L-4.76 637.22L-4.76 -21.43Z" id="e44udGn3Bm"></path><path d="" id="f25Gfgl9Rx"></path>
<path d="M322.11 811.52C624.89 783.71 383.68 656.76 -401.5 430.67" id="a95NyQqdVJ"></path><path d="" id="a3tI5E8qxL"></path>
<path d="M325.01 -244.34C246.43 66.18 159.93 162.93 65.48 45.93C42.81 17.85 100.11 186.77 80.21 174.67C17.22 136.37 -58.05 115.2 -145.6 111.18" id="a3n1k8UzUe"></path>
<path d="M611.58 610.64L448.5 552.31L399.67 552.31L325.01 552.31L231.82 574.93L171.1 610.64" id="b1qI9mZe9h"></path>
<path d="" id="a7mCkR040k"></path><path d="" id="hBRDGj3jl"></path>
<path d="M199.19 630.31C544.87 917.85 687.56 1050.12 627.24 1027.1C624.57 1026.09 655.32 486.16 627.24 500.94C608.12 511 606.61 242.16 513.26 447.38C419.91 652.6 426.44 528.07 299.49 577.38C230.81 604.05 169.36 609.98 115.15 595.16L199.19 630.31Z" id="i36sugblew"></path>
<path d="M307 147.09C307 156.95 300.55 164.95 292.6 164.95C284.65 164.95 278.2 156.95 278.2 147.09C278.2 137.24 284.65 129.24 292.6 129.24C300.55 129.24 307 137.24 307 147.09Z" id="a4uHME2GXw"></path>
<path d="M179.39 257.33C179.39 270.14 169.46 280.54 157.24 280.54C145.02 280.54 135.1 270.14 135.1 257.33C135.1 244.52 145.02 234.12 157.24 234.12C169.46 234.12 179.39 244.52 179.39 257.33Z" id="ddkT4J7aR"></path>
<path d="M302.26 378.3C302.26 382.9 299.27 386.63 295.6 386.63C291.92 386.63 288.93 382.9 288.93 378.3C288.93 373.7 291.92 369.96 295.6 369.96C299.27 369.96 302.26 373.7 302.26 378.3Z" id="b1qR54OwE3"></path>
<path d="M654.77 18.76C654.77 34.86 640.84 47.93 623.7 47.93C606.55 47.93 592.62 34.86 592.62 18.76C592.62 2.66 606.55 -10.41 623.7 -10.41C640.84 -10.41 654.77 2.66 654.77 18.76Z" id="b1YqDjcBnU"></path>
<path d="M462 164.95C462 181.05 453.95 194.12 444.03 194.12C434.11 194.12 426.05 181.05 426.05 164.95C426.05 148.85 434.11 135.78 444.03 135.78C453.95 135.78 462 148.85 462 164.95Z" id="aqhYFGMpM"></path>
<path d="M96.37 461.39C96.37 465.99 93.38 469.73 89.7 469.73C86.02 469.73 83.04 465.99 83.04 461.39C83.04 456.79 86.02 453.06 89.7 453.06C93.38 453.06 96.37 456.79 96.37 461.39Z" id="kI9E9knd5"></path>
<path d="M545.83 265.66C545.83 270.26 542.85 274 539.17 274C535.49 274 532.5 270.26 532.5 265.66C532.5 261.06 535.49 257.33 539.17 257.33C542.85 257.33 545.83 261.06 545.83 265.66Z" id="d5PistfbDW"></path>
</defs><g><g><g><g><use xlink:href="#c9gFBHfFQ" opacity="1" fill-opacity="0" stroke="#000000" stroke-width="1" stroke-opacity="1"></use></g></g><g><g><use xlink:href="#b5baRkLFj" opacity="1" fill-opacity="0" stroke="#000000" stroke-width="1" stroke-opacity="1"></use></g></g><g><use xlink:href="#e44udGn3Bm" opacity="1" fill="#d2a2e0" fill-opacity="1"></use>
<g><use xlink:href="#e44udGn3Bm" opacity="1" fill-opacity="0" stroke="#c55ec4" stroke-width="0" stroke-opacity="1"></use></g></g><g><g><use xlink:href="#f25Gfgl9Rx" opacity="1" fill-opacity="0" stroke="#000000" stroke-width="1" stroke-opacity="1"></use></g></g>
<g><use xlink:href="#a95NyQqdVJ" opacity="1" fill="#e2c8e9" fill-opacity="1"></use><g><use xlink:href="#a95NyQqdVJ" opacity="1" fill-opacity="0" stroke="#000000" stroke-width="0" stroke-opacity="1"></use></g></g>
<g><g><use xlink:href="#a3tI5E8qxL" opacity="1" fill-opacity="0" stroke="#000000" stroke-width="1" stroke-opacity="1"></use></g></g><g><use xlink:href="#a3n1k8UzUe" opacity="1" fill="#e2c8e9" fill-opacity="1"></use>
<g><use xlink:href="#a3n1k8UzUe" opacity="1" fill-opacity="0" stroke="#000000" stroke-width="0" stroke-opacity="1"></use></g></g><g><g><use xlink:href="#b1qI9mZe9h" opacity="1" fill-opacity="0" stroke="#000000" stroke-width="0" stroke-opacity="1"></use></g></g>
<g><g><use xlink:href="#a7mCkR040k" opacity="1" fill-opacity="0" stroke="#000000" stroke-width="1" stroke-opacity="1"></use></g></g><g><g><use xlink:href="#hBRDGj3jl" opacity="1" fill-opacity="0" stroke="#000000" stroke-width="1" stroke-opacity="1"></use></g></g>
<g><use xlink:href="#i36sugblew" opacity="1" fill="#e2c8e9" fill-opacity="1"></use><g><use xlink:href="#i36sugblew" opacity="1" fill-opacity="0" stroke="#000000" stroke-width="0" stroke-opacity="1"></use></g></g><g><use xlink:href="#a4uHME2GXw" opacity="1" fill="#e2c8e9" fill-opacity="1"></use></g>
<g><use xlink:href="#ddkT4J7aR" opacity="1" fill="#e2c8e9" fill-opacity="1"></use></g><g><use xlink:href="#b1qR54OwE3" opacity="1" fill="#e2c8e9" fill-opacity="1"></use></g><g><use xlink:href="#b1YqDjcBnU" opacity="1" fill="#e2c8e9" fill-opacity="1"></use></g><g><use xlink:href="#aqhYFGMpM" opacity="1" fill="#e2c8e9" fill-opacity="1"></use></g>
<g><use xlink:href="#kI9E9knd5" opacity="1" fill="#e2c8e9" fill-opacity="1"></use></g>
<g><use xlink:href="#d5PistfbDW" opacity="1" fill="#e2c8e9" fill-opacity="1"></use></g></g></g></svg>